<?xml version="1.0" encoding="utf-8"?>
<!-- Generator: Adobe Illustrator 21.1.0, SVG Export Plug-In . SVG Version: 6.00 Build 0)  -->
<svg version="1.1" id="Layer_2" xmlns="http://www.w3.org/2000/svg" xmlns:xlink="http://www.w3.org/1999/xlink" x="0px" y="0px"
	 viewBox="0 0 800 800" style="enable-background:new 0 0 800 800;" xml:space="preserve">
<style type="text/css">
	.st0{fill:#FFFFFF;}
	.st1{fill:#EEEEEE;}
	.st2{enable-background:new    ;}
	.st3{fill:#FEFEFE;}
	.st4{fill:#EFEFEF;}
	.st5{fill:#DBDBDB;}
	.st6{fill:#2F2F2F;}
	.st7{fill:#5A5A5A;}
	.st8{fill:#9A9A9A;}
	.st9{fill:#1A1A1A;}
	.st10{fill:#B0B0B0;}
	.st11{fill:#6F6F6F;}
	.st12{fill:#444444;}
	.st13{fill:#C4C4C4;}
	.st14{fill:#848484;}
	.st15{fill:#040404;}
</style>
<g>
	<rect x="1" y="1" class="st0" width="798" height="798"/>
	<path class="st1" d="M798,2v796H2V2H798 M800,0H0v800h800V0L800,0z"/>
</g>
<g class="st2">
	<path d="M260.6,602.4c-3.7-4.6-5.6-11.3-5.6-20v-29.2c0-8.9,1.8-15.7,5.5-20.2c3.7-4.6,9.9-6.8,18.8-6.8c8.5,0,14.5,2,18,6.1
		c3.5,4.1,5.3,9.8,5.3,17.3v7h-17.5v-8.1c0-3.1-0.3-5.5-1-7.2c-0.7-1.7-2.3-2.5-4.8-2.5c-2.5,0-4.2,0.9-5,2.7
		c-0.8,1.8-1.2,4.2-1.2,7.3v38.1c0,3.2,0.4,5.7,1.2,7.4c0.8,1.7,2.5,2.5,5,2.5c2.5,0,4-0.8,4.8-2.5c0.7-1.7,1-4.2,1-7.4v-8.5h17.5v7
		c0,7.6-1.8,13.5-5.3,17.8c-3.5,4.2-9.5,6.4-18,6.4C270.5,609.4,264.3,607.1,260.6,602.4z"/>
	<path d="M323.8,527.2h20.4l15.1,81h-16.5l-2.7-17.1h-11.9l-2.8,17.1h-16.9L323.8,527.2z M338.4,580.4l-4.3-31.6l-4.3,31.6H338.4z"
		/>
	<path d="M372.9,540.5h-12.4v-13.3h42.7v13.3h-12.3v67.7h-18V540.5z"/>
	<path d="M412.5,602.4c-3.7-4.6-5.6-11.3-5.6-20v-29.2c0-8.9,1.8-15.7,5.5-20.2c3.7-4.6,9.9-6.8,18.8-6.8c8.5,0,14.5,2,18,6.1
		c3.5,4.1,5.3,9.8,5.3,17.3v7H437v-8.1c0-3.1-0.3-5.5-1-7.2c-0.7-1.7-2.3-2.5-4.8-2.5c-2.5,0-4.2,0.9-5,2.7
		c-0.8,1.8-1.2,4.2-1.2,7.3v38.1c0,3.2,0.4,5.7,1.2,7.4s2.5,2.5,5,2.5c2.5,0,4-0.8,4.8-2.5c0.7-1.7,1-4.2,1-7.4v-8.5h17.5v7
		c0,7.6-1.8,13.5-5.3,17.8c-3.5,4.2-9.5,6.4-18,6.4C422.4,609.4,416.2,607.1,412.5,602.4z"/>
	<path d="M464.6,527.2h17.9V560H495v-32.8h18v81h-18v-35.4h-12.5v35.4h-17.9V527.2z"/>
	<path d="M65.7,647.2h17.9v81H65.7V647.2z"/>
	<path d="M95.7,647.2h12.6l16.6,39v-39h14.8v81h-12.1l-16.6-42v42H95.7V647.2z"/>
	<path d="M151.8,647.2h35v12.1h-17.1v20.4h14.9v12.5h-14.9v36h-17.9V647.2z"/>
	<path d="M195.3,647.2h17.9v81h-17.9V647.2z"/>
	<path d="M225.3,647.2h12.6l16.6,39v-39h14.8v81h-12.1l-16.6-42v42h-15.3V647.2z"/>
	<path d="M281.5,647.2h17.9v81h-17.9V647.2z"/>
	<path d="M318.9,660.5h-12.4v-13.3h42.7v13.3h-12.3v67.7h-18V660.5z"/>
	<path d="M356.2,647.2h36.4v12.2h-18.5v20.1h14.1v12.4h-14.1v24.2h18.7v12.1h-36.6V647.2z"/>
	<path d="M430.8,723.2c-3.8-4.1-5.8-10.6-6-19.5l15.3-2.3c0.1,5.1,0.7,8.8,1.8,11c1.2,2.2,2.9,3.3,5.2,3.3c3,0,4.5-2,4.5-5.9
		c0-3.1-0.7-5.8-2.1-8.1c-1.4-2.3-3.7-4.7-6.8-7.3l-7-6.1c-3.6-3.1-6.3-6.2-8.2-9.4c-1.8-3.1-2.8-7-2.8-11.8c0-6.8,2-12,6-15.7
		c4-3.7,9.6-5.5,16.7-5.5c7.7,0,12.9,2.2,15.7,6.7c2.8,4.5,4.2,9.9,4.4,16.3l-15.4,1.9c-0.1-4.2-0.5-7.2-1.2-9.1
		c-0.6-1.9-2-2.8-4.1-2.7c-1.5,0-2.7,0.7-3.6,2c-0.8,1.3-1.2,2.8-1.2,4.3c0,2.9,0.7,5.2,2,7c1.3,1.8,3.2,3.9,5.9,6.2l6.7,5.9
		c4,3.6,7.1,7.3,9.3,11c2.2,3.7,3.3,8.2,3.3,13.3c0,3.8-0.9,7.2-2.7,10.4c-1.8,3.1-4.2,5.5-7.5,7.3c-3.2,1.8-6.9,2.7-11.1,2.7
		C440.3,729.4,434.6,727.3,430.8,723.2z"/>
	<path d="M482.4,722.4c-3.7-4.6-5.5-11.3-5.5-20v-29.2c0-8.9,1.8-15.7,5.5-20.2c3.7-4.6,9.9-6.8,18.8-6.8c8.5,0,14.5,2,18,6.1
		c3.5,4.1,5.3,9.8,5.3,17.3v7h-17.5v-8.1c0-3.1-0.3-5.5-1-7.2c-0.7-1.7-2.3-2.5-4.8-2.5c-2.5,0-4.2,0.9-5,2.7
		c-0.8,1.8-1.2,4.2-1.2,7.3v38.1c0,3.2,0.4,5.7,1.2,7.4c0.8,1.7,2.5,2.5,5,2.5c2.5,0,4-0.8,4.8-2.5s1-4.2,1-7.4v-8.5h17.5v7
		c0,7.6-1.8,13.5-5.3,17.8c-3.5,4.2-9.5,6.4-18,6.4C492.3,729.4,486.1,727.1,482.4,722.4z"/>
	<path d="M534.2,647.2h22.3c8.9,0,15.6,1.6,20.1,4.7c4.5,3.1,6.8,8.7,6.8,16.7c0,5.4-0.7,9.7-2.1,12.9c-1.4,3.2-4,5.7-7.8,7.5
		l11.1,39.2h-18.5l-8.9-36.3h-5.1v36.3h-17.9V647.2z M557.1,681.6c3.6,0,6.1-1,7.5-2.9c1.4-1.9,2.1-4.8,2.1-8.5c0-3.7-0.7-6.4-2-8.2
		c-1.3-1.8-3.6-2.8-6.9-2.8h-5.8v22.4H557.1z"/>
	<path d="M598.7,722.6c-3.7-4.5-5.6-11.2-5.6-20v-30.1c0-8.8,1.9-15.4,5.6-19.9c3.7-4.4,10-6.6,18.7-6.6c8.8,0,15.1,2.2,18.8,6.7
		c3.8,4.5,5.7,11.1,5.7,19.8v30.1c0,8.8-1.9,15.5-5.7,20c-3.8,4.5-10,6.8-18.8,6.8C608.7,729.4,602.5,727.1,598.7,722.6z
		 M622.4,714.1c0.8-1.7,1.2-4,1.2-7v-39c0-3-0.4-5.3-1.2-7c-0.8-1.7-2.5-2.5-5-2.5c-2.4,0-4,0.8-4.8,2.5c-0.8,1.7-1.2,4-1.2,7v39
		c0,2.9,0.4,5.2,1.1,7c0.7,1.7,2.4,2.5,4.9,2.5C620,716.7,621.6,715.8,622.4,714.1z"/>
	<path d="M652.8,647.2h17.9v68.9h18.6v12.1h-36.5V647.2z"/>
	<path d="M697.1,647.2H715v68.9h18.6v12.1h-36.5V647.2z"/>
</g>
<g id="Lxm0fZ.tif">
	<g>
		<path class="st3" d="M450.5,192c7.9,3.1,14.4-0.6,18.7-8.4c12.8-22.7,26.1-45.2,39-67.9c5.5-9.8,3.5-16.9-6-22.8
			c-2.7-1.7-5.5-3.3-8.3-4.8c-8.9-4.6-16.6-2.7-21.6,5.8c-13.6,23.3-27,46.7-40.4,70.1c-1.4,2.5-2.8,5.2-2.2,7.5
			C429.6,182.1,438.5,187.3,450.5,192z M499.1,228.3c21.8-12.7,43.7-25.2,65.5-37.9c12.7-7.4,14.2-13.9,6.7-27.3
			c-7.9-14.1-14.5-16.6-27.2-9.4c-22.2,12.6-44.2,25.5-66.3,38.2c-6.6,3.8-11.7,9.3-8.8,17c4.6,12.4,10.4,23.3,20.5,22
			C492.8,231.3,496,230.1,499.1,228.3z M232.5,189c24.4,14,48.9,27.9,73.3,41.9c5.6,3.2,10.8,1.9,15.2-2.3
			c4.9-4.7,8.8-10.4,10.5-16.9c2-7.6-0.1-14-7.8-18.4c-21.5-12.1-42.6-24.8-64.1-37c-6.4-3.6-12.9-9.1-20.7-3
			c-7.6,6-11.2,14.3-13.6,22C225.6,182.2,227.7,186.3,232.5,189z M318.2,292.2c-3.8-2.8-8.2-2.6-12.4-0.3
			c-24.7,14.1-49.4,28.2-74.1,42.3c-1,0.6-1.9,1.4-2.7,2.2c-6.4,6.9-4.7,17.3,5.8,29.7c4.7,5.6,11,8,18.6,3.6
			c24.1-14,48.3-27.7,72.4-41.7c4.7-2.7,6.4-7.4,6-15.3C330.5,305.8,326,297.9,318.2,292.2z M431.7,344.2c-2.8,3.8-2.6,8.2-0.3,12.4
			c14.1,24.7,28.2,49.4,42.3,74.1c0.6,1,1.4,1.9,2.2,2.7c6.9,6.4,17.3,4.7,29.7-5.8c5.6-4.7,8-11,3.6-18.6
			c-14-24.1-27.7-48.3-41.7-72.4c-2.7-4.7-7.3-6.4-12.8-6.3C445.3,331.8,437.4,336.4,431.7,344.2z M300.1,130.1
			c10.1,18.5,21,36.7,31.6,54.9c5.1,8.8,12.3,10.9,21.2,6.4c3.6-1.8,7.2-3.8,10.5-6.1c7.4-5,9.1-12.8,4.8-20.4
			c-12.7-22.4-25.5-44.8-38.3-67.1c-5.4-9.3-11.5-12.2-20.7-9.9c-11,2.7-19.2,11.1-19.3,19.7C289.7,116.7,296.2,122.9,300.1,130.1z
			 M574.2,353.8c2.6-8.5,0.4-15.3-7.6-20c-23.2-13.6-46.6-26.9-69.9-40.3c-1.9-1.1-3.7-1.4-5.8-1.5c-9.6-0.4-17.5,7.3-22,21.4
			c-2.1,6.7,1.6,13.2,10,18.1c21.3,12.3,42.5,24.7,63.8,37c3.7,2.2,7.5,4.6,11.8,3.9C563.4,372.2,570.7,365.2,574.2,353.8z
			 M308.6,434.7c8.5,2.6,15.3,0.3,20-7.7c13.6-23.2,26.9-46.6,40.3-69.9c1.1-1.9,1.4-3.7,1.5-5.8c0.4-9.6-7.4-17.6-21.4-21.9
			c-6.7-2.1-13.2,1.6-18.1,10c-12.3,21.3-24.7,42.5-37,63.8c-2.2,3.7-4.6,7.5-3.9,11.7C290.1,423.9,297.2,431.3,308.6,434.7z"/>
		<path class="st4" d="M429.7,171.7c-0.1,10.4,8.8,15.6,20.9,20.3c7.9,3.1,14.4-0.6,18.7-8.4c12.8-22.7,26.1-45.2,39-67.9
			c5.5-9.8,3.5-16.9-6-22.8c-2.7-1.7-5.5-3.3-8.3-4.8c-8.9-4.6-16.6-2.7-21.6,5.8c-13.6,23.3-27,46.7-40.4,70.1
			C430.4,166.7,429.1,169.3,429.7,171.7z"/>
		<path class="st5" d="M489.4,230.9c3.4,0.4,6.6-0.9,9.7-2.7c21.8-12.7,43.7-25.2,65.5-37.9c12.7-7.4,14.2-13.9,6.7-27.3
			c-7.9-14.1-14.5-16.6-27.2-9.4c-22.2,12.6-44.2,25.5-66.3,38.2c-6.6,3.8-11.7,9.3-8.8,17C473.6,221.3,479.3,232.2,489.4,230.9z"/>
		<path class="st6" d="M225.3,175.4c0.3,6.7,2.5,10.8,7.2,13.5c24.4,14,48.9,27.9,73.3,41.9c5.6,3.2,10.8,1.9,15.2-2.3
			c4.9-4.7,8.8-10.4,10.5-16.9c2-7.6-0.1-14-7.8-18.4c-21.5-12.1-42.6-24.8-64.1-37c-6.4-3.6-12.9-9.1-20.7-3
			C231.2,159.4,227.6,167.7,225.3,175.4z"/>
		<path class="st7" d="M331.8,312.7c-1.3-7-5.9-14.8-13.7-20.6c-3.8-2.8-8.2-2.6-12.4-0.3c-24.7,14.1-49.4,28.2-74.1,42.3
			c-1,0.6-1.9,1.4-2.7,2.2c-6.4,6.9-4.7,17.3,5.8,29.7c4.7,5.6,11,8,18.6,3.6c24.1-14,48.3-27.7,72.4-41.7
			C330.5,325.4,332.2,320.7,331.8,312.7z"/>
		<path class="st8" d="M454.8,330.2c-9.5,1.6-17.4,6.1-23.1,13.9c-2.8,3.8-2.6,8.2-0.3,12.4c14.1,24.7,28.2,49.4,42.3,74.1
			c0.6,1,1.4,1.9,2.2,2.7c6.9,6.4,17.3,4.7,29.7-5.8c5.6-4.7,8-11,3.6-18.6c-14-24.1-27.7-48.3-41.7-72.4
			C464.9,331.8,460.2,330.1,454.8,330.2z"/>
		<path class="st9" d="M289.9,107.5c-0.3,9.2,6.3,15.4,10.2,22.6c10.1,18.5,21,36.7,31.6,54.9c5.1,8.8,12.3,10.9,21.2,6.4
			c3.6-1.8,7.2-3.8,10.5-6.1c7.4-5,9.1-12.8,4.8-20.4c-12.7-22.4-25.5-44.8-38.3-67.1c-5.4-9.3-11.5-12.2-20.7-9.9
			C298.3,90.6,290.1,99,289.9,107.5z"/>
		<path class="st10" d="M554.5,372.3c9-0.1,16.3-7.1,19.8-18.6c2.6-8.5,0.4-15.3-7.6-20c-23.2-13.6-46.6-26.9-69.9-40.3
			c-1.9-1.1-3.7-1.4-5.8-1.5c-9.6-0.4-17.5,7.3-22,21.4c-2.1,6.7,1.6,13.2,10,18.1c21.3,12.3,42.5,24.7,63.8,37
			C546.4,370.6,550.2,373,554.5,372.3z"/>
		<path class="st11" d="M290,415c0.1,8.9,7.2,16.3,18.6,19.7c8.5,2.6,15.3,0.3,20-7.7c13.6-23.2,26.9-46.6,40.3-69.9
			c1.1-1.9,1.4-3.7,1.5-5.8c0.4-9.6-7.4-17.6-21.4-21.9c-6.7-2.1-13.2,1.6-18.1,10c-12.3,21.3-24.7,42.5-37,63.8
			C291.7,407,289.3,410.8,290,415z"/>
		<path class="st12" d="M206.2,249.7c-3.3,9-3.3,18.1,0.6,27c1.9,4.3,5.8,6.4,10.6,6.4c28.4,0.1,56.9,0.1,85.3,0.1
			c1.1,0,2.3-0.2,3.4-0.6c8.9-2.8,12.7-12.7,9.8-28.6c-1.3-7.2-5.6-12.4-14.3-12.4c-27.9,0.2-55.7,0-83.6,0.1
			C212.6,241.7,208.8,244.9,206.2,249.7z"/>
		<path class="st13" d="M487.1,249.7c-3.3,9-3.3,18.1,0.6,27c1.9,4.3,5.8,6.4,10.6,6.4c28.4,0.1,56.9,0.1,85.3,0.1
			c1.1,0,2.3-0.2,3.4-0.6c8.9-2.8,12.7-12.7,9.8-28.6c-1.3-7.2-5.6-12.4-14.3-12.4c-27.9,0.2-55.7,0-83.6,0.1
			C493.6,241.7,489.8,244.9,487.1,249.7z"/>
		<path class="st14" d="M413.2,348.7c-9-3.3-18.1-3.3-27,0.6c-4.3,1.9-6.4,5.8-6.4,10.6c-0.1,28.4-0.1,56.9-0.1,85.3
			c0,1.1,0.2,2.3,0.6,3.4c2.8,8.9,12.7,12.7,28.6,9.8c7.2-1.3,12.4-5.6,12.4-14.3c-0.2-27.9,0-55.7-0.1-83.6
			C421.2,355.1,418,351.3,413.2,348.7z"/>
		<path class="st15" d="M413.2,66c-9-3.3-18.1-3.3-27,0.6c-4.3,1.9-6.4,5.8-6.4,10.6c-0.1,28.4-0.1,56.9-0.1,85.3
			c0,1.1,0.2,2.3,0.6,3.4c2.8,8.9,12.7,12.7,28.6,9.8c7.2-1.3,12.4-5.6,12.4-14.3c-0.2-27.9,0-55.7-0.1-83.6
			C421.2,72.4,418,68.6,413.2,66z"/>
	</g>
</g>
</svg>
